# xmcd
#
# Track frame offsets:
#	150
#	10079
#	33340
#	41578
#	57437
#	70620
#	88746
#	105509
#	121801
#	138816
#	151609
#	164148
#	188208
#	208268
#	223289
#	247351
#	264296
#	280177
#	296889
#
# Disc length: 4400 seconds
#
# Revision: 0
# Processed by: cddbd v1.4PL0 Copyright (c) Steve Scherf et al.
# Submitted via: dBpowerAMP V4.0
#
DISCID=1d112e13
DTITLE=Various Artist - Dale Earnhardt Tribute
DYEAR=1900
DGENRE=
TTITLE0=Dale Darryl Waltrip Richard Petty Awesome Bill
TTITLE1=Ballad of Dale Earnhardt and Rusty Wallace
TTITLE2=Dale Earnhardt answering Machine
TTITLE3=Sunday Money for Dale Earnhardt
TTITLE4=(loving Memory) Dale Earnhardt
TTITLE5=Asphault Angel
TTITLE6=Take another Road
TTITLE7=www.steeleimaging.com
TTITLE8=Tears in Heaven
TTITLE9=WQYK Tribute to Dale
TTITLE10=Performance Racing Network
TTITLE11=Rock-105-Dale Earnhardt Tribute
TTITLE12=Drivers in Heaven
TTITLE13=Dale Earnhardt a Tribute
TTITLE14=Steve n DC Tribute
TTITLE15=The Dance - Garth Brooks
TTITLE16=One More Day Diamond Rio
TTITLE17=Randy Owens God Bless Dale
TTITLE18=Angels among us.
EXTD=
EXTT0=
EXTT1=
EXTT2=
EXTT3=
EXTT4=
EXTT5=
EXTT6=
EXTT7=
EXTT8=
EXTT9=
EXTT10=
EXTT11=
EXTT12=
EXTT13=
EXTT14=
EXTT15=
EXTT16=
EXTT17=
EXTT18=
PLAYORDER=
